<svg xmlns="http://www.w3.org/2000/svg" width="760" height="348" viewBox="0 0 760 348" role="img"><rect x="0" y="0" width="760" height="348" rx="12" ry="12" fill="#161618" stroke="#3a3a40" stroke-width="1"/><clipPath id="clip"><rect x="0" y="0" width="760" height="348" rx="12" ry="12"/></clipPath><g clip-path="url(#clip)"><rect x="0" y="0" width="760" height="40" rx="0" ry="0" fill="#1f1f23"/><circle cx="20" cy="20" r="6" fill="#ff5f57"/><circle cx="40" cy="20" r="6" fill="#febc2e"/><circle cx="60" cy="20" r="6" fill="#28c840"/><text x="380" y="25" font-family="-apple-system, 'Segoe UI', Roboto, Helvetica, Arial, sans-serif" font-size="13" font-weight="400" fill="#7d7d85" text-anchor="middle" xml:space="preserve">agent-switch</text><rect x="20" y="56" width="76" height="30" rx="8" ry="8" fill="#26262b" stroke="#ff7a50" stroke-width="1"/><text x="58" y="76" font-family="-apple-system, 'Segoe UI', Roboto, Helvetica, Arial, sans-serif" font-size="13" font-weight="600" fill="#f5f5f5" text-anchor="middle" xml:space="preserve">Claude</text><rect x="106" y="56" width="68" height="30" rx="8" ry="8" fill="none"/><text x="140" y="76" font-family="-apple-system, 'Segoe UI', Roboto, Helvetica, Arial, sans-serif" font-size="13" font-weight="400" fill="#8a8a93" text-anchor="middle" xml:space="preserve">Codex</text><rect x="184" y="56" width="116" height="30" rx="8" ry="8" fill="none"/><text x="242" y="76" font-family="-apple-system, 'Segoe UI', Roboto, Helvetica, Arial, sans-serif" font-size="13" font-weight="400" fill="#8a8a93" text-anchor="middle" xml:space="preserve">Antigravity</text><text x="740" y="76" font-family="-apple-system, 'Segoe UI', Roboto, Helvetica, Arial, sans-serif" font-size="12" font-weight="400" fill="#8a8a93" text-anchor="end" xml:space="preserve">Max 20x</text><rect x="20" y="106" width="720" height="66" rx="10" ry="10" fill="#26262b" stroke="#ff7a50" stroke-width="1.5"/><circle cx="42" cy="130" r="5" fill="#ff7a50"/><text x="60" y="128" font-family="-apple-system, 'Segoe UI', Roboto, Helvetica, Arial, sans-serif" font-size="15" font-weight="600" fill="#e6e6ea" text-anchor="start" xml:space="preserve">work</text><rect x="110" y="116" width="58" height="20" rx="10" ry="10" fill="none" stroke="#ff7a50" stroke-width="1"/><text x="118" y="131" font-family="-apple-system, 'Segoe UI', Roboto, Helvetica, Arial, sans-serif" font-size="11" font-weight="600" fill="#ff7a50" text-anchor="start" xml:space="preserve">active</text><rect x="176" y="116" width="44" height="20" rx="10" ry="10" fill="none" stroke="#4ec9b0" stroke-width="1"/><text x="184" y="131" font-family="-apple-system, 'Segoe UI', Roboto, Helvetica, Arial, sans-serif" font-size="11" font-weight="600" fill="#4ec9b0" text-anchor="start" xml:space="preserve">live</text><text x="60" y="148" font-family="'SFMono-Regular', Menlo, Consolas, 'Liberation Mono', monospace" font-size="12.5" font-weight="400" fill="#8a8a93" text-anchor="start" xml:space="preserve">you@company.example</text><rect x="60" y="158" width="590" height="8" rx="4" ry="4" fill="#33333a"/><rect x="60" y="158" width="271" height="8" rx="4" ry="4" fill="#4ec9b0"/><text x="660" y="166" font-family="-apple-system, 'Segoe UI', Roboto, Helvetica, Arial, sans-serif" font-size="12" font-weight="400" fill="#8a8a93" text-anchor="start" xml:space="preserve">46%</text><rect x="20" y="184" width="720" height="66" rx="10" ry="10" fill="#26262b" stroke="#3a3a40" stroke-width="1"/><circle cx="42" cy="208" r="5" fill="#8a8a93"/><text x="60" y="206" font-family="-apple-system, 'Segoe UI', Roboto, Helvetica, Arial, sans-serif" font-size="15" font-weight="600" fill="#e6e6ea" text-anchor="start" xml:space="preserve">privat</text><text x="60" y="226" font-family="'SFMono-Regular', Menlo, Consolas, 'Liberation Mono', monospace" font-size="12.5" font-weight="400" fill="#8a8a93" text-anchor="start" xml:space="preserve">you@personal.example</text><rect x="60" y="236" width="590" height="8" rx="4" ry="4" fill="#33333a"/><rect x="60" y="236" width="106" height="8" rx="4" ry="4" fill="#4ec9b0"/><text x="660" y="244" font-family="-apple-system, 'Segoe UI', Roboto, Helvetica, Arial, sans-serif" font-size="12" font-weight="400" fill="#8a8a93" text-anchor="start" xml:space="preserve">18%</text><rect x="20" y="262" width="720" height="66" rx="10" ry="10" fill="#26262b" stroke="#3a3a40" stroke-width="1"/><circle cx="42" cy="286" r="5" fill="#8a8a93"/><text x="60" y="284" font-family="-apple-system, 'Segoe UI', Roboto, Helvetica, Arial, sans-serif" font-size="15" font-weight="600" fill="#e6e6ea" text-anchor="start" xml:space="preserve">event4u</text><text x="60" y="304" font-family="'SFMono-Regular', Menlo, Consolas, 'Liberation Mono', monospace" font-size="12.5" font-weight="400" fill="#8a8a93" text-anchor="start" xml:space="preserve">dev@event4u.example</text><rect x="60" y="314" width="590" height="8" rx="4" ry="4" fill="#33333a"/><rect x="60" y="314" width="372" height="8" rx="4" ry="4" fill="#dcb67a"/><text x="660" y="322" font-family="-apple-system, 'Segoe UI', Roboto, Helvetica, Arial, sans-serif" font-size="12" font-weight="400" fill="#8a8a93" text-anchor="start" xml:space="preserve">63%</text></g></svg>
